<svg width="48" height="49" viewBox="0 0 48 49" fill="none" xmlns="http://www.w3.org/2000/svg">
<path d="M24 49C37.2462 49 48 38.0382 48 24.5C48 10.9778 37.2619 2.87594e-06 24 1.71655e-06C10.7538 5.58527e-07 -4.89292e-07 10.9618 -1.67284e-06 24.5C-2.85639e-06 38.0382 10.7381 49 24 49ZM18.0745 34.8217C17.855 35.3178 17.5415 35.9259 16.9458 36.3579C16.2247 36.886 15.4409 36.854 14.7668 36.2619C14.0457 35.6378 13.7165 34.8217 13.4657 34.0216C12.9797 32.4853 12.823 30.853 12.9797 29.0447C13.0738 27.9406 13.2933 26.4843 14.0771 25.1401C14.2339 24.8681 14.4377 24.612 14.6728 24.388C15.0647 24.0199 15.5036 23.8439 15.9269 23.8439C16.3971 23.8439 16.8674 24.0519 17.2593 24.484C17.8864 25.1401 18.1842 25.9402 18.3723 26.5643C18.7329 27.7165 18.9053 28.9327 18.8896 30.2769C18.8896 32.1012 18.6231 33.5415 18.0745 34.8217ZM35.0202 31.5251C34.8948 32.9494 34.6127 34.0856 34.1111 35.0937C33.8916 35.5258 33.6408 35.8779 33.3586 36.1499C32.951 36.534 32.4651 36.742 32.0105 36.71C31.5402 36.694 31.1012 36.454 30.7093 36.0379C30.0509 35.3178 29.7531 34.4536 29.5336 33.7015C29.2358 32.6453 29.079 31.4931 29.0947 30.549C29.0947 28.6447 29.3142 27.2685 29.8315 25.9882C30.0823 25.3641 30.3645 24.8841 30.7407 24.484C31.1483 24.0519 31.6029 23.8439 32.0731 23.8439C32.4964 23.8439 32.9197 24.0199 33.2959 24.372C33.9072 24.9321 34.2208 25.6362 34.4402 26.2603C34.9889 27.8445 35.177 29.5568 35.0202 31.5251ZM24 7.69726C30.4585 7.69726 36.3684 11.2978 39.4409 17.1068L35.3808 19.3312C33.1235 15.0425 28.7498 12.386 24 12.386C19.2345 12.386 14.8765 15.0425 12.6192 19.3312L8.5591 17.1068C11.6159 11.3138 17.5415 7.69726 24 7.69726Z" fill="#0079D0"/>
</svg>
