<svg viewBox="0 0 20 20" fill="none" xmlns="http://www.w3.org/2000/svg">
<path d="M9.9953 16.67C6.3135 16.67 3.3256 13.6861 3.3256 10.0028C3.3256 6.31287 6.3135 3.33119 9.9953 3.33119C13.6803 3.33119 16.6645 6.31287 16.6645 10.0028C16.6645 13.6861 13.6803 16.67 9.9953 16.67ZM9.9953 0C4.47584 0 0 4.47803 0 10.0028C0 15.5234 4.47584 20 9.9953 20C15.5171 20 20 15.5234 20 10.0028C20 4.47803 15.5171 0 9.9953 0Z" fill="#CC0000"/>
<path d="M9.99519 6.57507C8.10326 6.57507 6.57031 8.10466 6.57031 10.0028C6.57031 11.8946 8.10321 13.4288 9.99519 13.4288C11.8889 13.4288 13.4252 11.8946 13.4252 10.0028C13.4252 8.10471 11.8889 6.57507 9.99519 6.57507Z" fill="#CC0000"/>
</svg>
